<?xml version="1.0" encoding="utf-8"?>
<!-- Generator: Adobe Illustrator 19.0.0, SVG Export Plug-In . SVG Version: 6.00 Build 0)  -->
<svg version="1.1" id="Layer_1" xmlns="http://www.w3.org/2000/svg" xmlns:xlink="http://www.w3.org/1999/xlink" x="0px" y="0px"
	 viewBox="0 0 96 96" style="enable-background:new 0 0 96 96;" xml:space="preserve">
<style type="text/css">
	.st0{fill:#333333;}
</style>
<g id="XMLID_2_">
	<path id="XMLID_6_" class="st0" d="M38.5,48c-2.9-2-6.2-3.5-9.7-4.4C32.3,44.5,35.6,46,38.5,48z M67.2,43.6
		c-3.5,0.9-6.8,2.5-9.8,4.5C60.3,46.1,63.6,44.5,67.2,43.6z"/>
	<path id="XMLID_11_" class="st0" d="M57.6,41.5c-0.5-7.7-3.6-15.2-9.4-21c-5.9,5.9-9.1,13.4-9.8,21c3.5,1.9,6.8,4.3,9.6,7.2
		C50.8,45.8,54.1,43.4,57.6,41.5z M39.7,48.8c-0.4-0.3-0.8-0.5-1.2-0.8C38.9,48.3,39.3,48.5,39.7,48.8z M57.4,48.1
		c-0.4,0.2-0.8,0.5-1.1,0.7C56.6,48.5,57,48.3,57.4,48.1z M48,57.5c-5.9-9-16-15-27.5-15c0,14.6,9.2,27,22.1,31.6
		c1.7,0.6,3.5,1.1,5.4,1.4c1.9-0.3,3.7-0.8,5.4-1.4c12.9-4.6,22.1-17,22.1-31.6C64,42.5,53.9,48.5,48,57.5z"/>
</g>
</svg>
