<?xml version="1.0"?>
<svg xmlns="http://www.w3.org/2000/svg" xmlns:xlink="http://www.w3.org/1999/xlink" version="1.1" viewBox="0 0 224 224" width="500px" height="500px"><g transform="translate(0.448,0.448) scale(0.996,0.996)"><g fill="none" fill-rule="nonzero" stroke="none" stroke-width="1" stroke-linecap="butt" stroke-linejoin="none" stroke-miterlimit="10" stroke-dasharray="" stroke-dashoffset="0" font-family="none" font-weight="none" font-size="none" text-anchor="none" style="mix-blend-mode: normal"><g fill="#000000" stroke="#95a5a6" stroke-linejoin="round"><g id="surface1 1"><path d="M170.24,89.6c0,18.9175 -6.895,36.225 -18.34,49.56l58.24,58.38l-12.6,12.6l-58.94,-58.8c-12.53,9.065 -27.895,14.42 -44.52,14.42c-42.0175,0 -76.16,-34.1425 -76.16,-76.16c0,-42.0175 34.1425,-76.16 76.16,-76.16c42.0175,0 76.16,34.1425 76.16,76.16zM26.88,89.6c0,37.17 30.03,67.2 67.2,67.2c37.17,0 67.2,-30.03 67.2,-67.2c0,-37.17 -30.03,-67.2 -67.2,-67.2c-37.17,0 -67.2,30.03 -67.2,67.2z"/></g></g><path d="M0,224v-224h224v224z" fill="none" stroke="none" stroke-linejoin="miter"/><g fill="#cccccc" stroke="none" stroke-linejoin="miter"><g id="surface1"><path d="M94.08,13.44c-42.0175,0 -76.16,34.1425 -76.16,76.16c0,42.0175 34.1425,76.16 76.16,76.16c16.625,0 31.99,-5.355 44.52,-14.42l58.94,58.8l12.6,-12.6l-58.24,-58.38c11.445,-13.335 18.34,-30.6425 18.34,-49.56c0,-42.0175 -34.1425,-76.16 -76.16,-76.16zM94.08,22.4c37.17,0 67.2,30.03 67.2,67.2c0,37.17 -30.03,67.2 -67.2,67.2c-37.17,0 -67.2,-30.03 -67.2,-67.2c0,-37.17 30.03,-67.2 67.2,-67.2z"/></g></g><path d="" fill="none" stroke="none" stroke-linejoin="miter"/><path d="" fill="none" stroke="none" stroke-linejoin="miter"/></g></g></svg>
